<?xml version="1.0" encoding="UTF-8" standalone="no"?>
<svg width="99px" height="77px" viewBox="0 0 99 77" version="1.1" xmlns="http://www.w3.org/2000/svg" xmlns:xlink="http://www.w3.org/1999/xlink">
    <!-- Generator: Sketch 3.8.3 (29802) - http://www.bohemiancoding.com/sketch -->
    <title></title>
    <desc>Created with Sketch.</desc>
    <defs></defs>
    <g id="Page-1" stroke="none" stroke-width="1" fill="none" fill-rule="evenodd">
        <g id="home-desktop" transform="translate(-329.000000, -528.000000)" fill="#86D37A">
            <g id="Tue" transform="translate(318.330725, 507.000000)">
                <path d="M109.302455,36.2924107 C109.302455,37.9888478 108.708711,39.4307976 107.521205,40.6183036 L61.4631696,86.6763393 L52.8113839,95.328125 C51.623878,96.5156309 50.1819281,97.109375 48.4854911,97.109375 C46.789054,97.109375 45.3471042,96.5156309 44.1595982,95.328125 L35.5078125,86.6763393 L12.4787946,63.6473214 C11.2912887,62.4598155 10.6975446,61.0178656 10.6975446,59.3214286 C10.6975446,57.6249915 11.2912887,56.1830417 12.4787946,54.9955357 L21.1305804,46.34375 C22.3180863,45.1562441 23.7600362,44.5625 25.4564732,44.5625 C27.1529103,44.5625 28.5948601,45.1562441 29.7823661,46.34375 L48.4854911,65.1104911 L90.2176339,23.3147321 C91.4051399,22.1272262 92.8470897,21.5334821 94.5435268,21.5334821 C96.2399638,21.5334821 97.6819137,22.1272262 98.8694196,23.3147321 L107.521205,31.9665179 C108.708711,33.1540238 109.302455,34.5959737 109.302455,36.2924107 L109.302455,36.2924107 Z" id=""></path>
            </g>
        </g>
    </g>
</svg>