<?xml version="1.0" encoding="UTF-8" standalone="no"?>
<svg width="99px" height="64px" viewBox="0 0 99 64" version="1.1" xmlns="http://www.w3.org/2000/svg" xmlns:xlink="http://www.w3.org/1999/xlink">
    <!-- Generator: Sketch 3.7.2 (28276) - http://www.bohemiancoding.com/sketch -->
    <title>Logo</title>
    <desc>Created with Sketch.</desc>
    <defs></defs>
    <g id="Page-1" stroke="none" stroke-width="1" fill="none" fill-rule="evenodd">
        <g id="home-desktop" transform="translate(-56.000000, 0.000000)">
            <g id="Logo" transform="translate(56.000000, 0.000000)">
                <polygon id="Fill-1" fill="#FF3333" points="0 63.7424432 98.4659211 63.7424432 98.4659211 0.000172972973 0 0.000172972973"></polygon>
                <g id="Group-20" transform="translate(11.289474, 23.958659)" fill="#FFFFFF">
                    <path d="M75.8363447,8.40285405 C75.8363447,5.87485405 74.5215553,3.79658378 71.4690553,3.79658378 C68.34795,3.79658378 66.5841868,6.19571892 66.5841868,9.41042162 C66.5841868,13.1596108 68.41395,14.8746378 71.74695,14.8746378 C73.0600026,14.8746378 74.3721868,14.6376649 75.4481605,14.1879351 L75.2327921,12.3665297 C74.3504763,12.7955027 73.2111079,13.0523676 72.1134237,13.0523676 C69.9849237,13.0523676 68.8855026,11.9384216 68.9515026,9.47442162 L75.7703447,9.47442162 C75.8146342,9.06707027 75.8363447,8.70296216 75.8363447,8.40285405 M73.5350289,7.8675027 L68.9940553,7.8675027 C69.1877132,6.43269189 70.0917395,5.48998919 71.3822132,5.48998919 C72.7378184,5.48998919 73.5749763,6.41107027 73.5350289,7.8675027" id="Fill-2"></path>
                    <path d="M34.8250737,8.57349189 C34.8250737,6.04549189 33.5128895,3.96808649 30.4586526,3.96808649 C27.3392842,3.96808649 25.5746526,6.36722162 25.5746526,9.58105946 C25.5746526,13.3302486 27.4035474,15.0426811 30.7382842,15.0426811 C32.0504684,15.0426811 33.3617842,14.8083027 34.4377579,14.358573 L34.2232579,12.5371676 C33.3418105,12.9652757 32.2015737,13.2230054 31.1038895,13.2230054 C28.9736526,13.2230054 27.8768368,12.1099243 27.9411,9.64505946 L34.7608105,9.64505946 C34.8033632,9.23770811 34.8250737,8.87446486 34.8250737,8.57349189 M32.5237579,8.03814054 L27.9836526,8.03814054 C28.1773105,6.60332973 29.0813368,5.66062703 30.3726789,5.66062703 C31.7274158,5.66062703 32.5663105,6.58170811 32.5237579,8.03814054" id="Fill-4"></path>
                    <path d="M9.30209211,8.57349189 C9.30209211,6.04549189 7.98990789,3.96808649 4.93567105,3.96808649 C1.81543421,3.96808649 0.0516710526,6.36722162 0.0516710526,9.58105946 C0.0516710526,13.3302486 1.88056579,15.0426811 5.21443421,15.0426811 C6.52661842,15.0426811 7.83967105,14.8083027 8.91564474,14.358573 L8.70027632,12.5371676 C7.81882895,12.9652757 6.67772368,13.2230054 5.58090789,13.2230054 C3.45067105,13.2230054 2.35385526,12.1099243 2.41811842,9.64505946 L9.23782895,9.64505946 C9.28125,9.23770811 9.30209211,8.87446486 9.30209211,8.57349189 M7.00077632,8.03814054 L2.46067105,8.03814054 C2.65519737,6.60332973 3.55835526,5.66062703 4.84882895,5.66062703 C6.20443421,5.66062703 7.04332895,6.58170811 7.00077632,8.03814054" id="Fill-6"></path>
                    <path d="M66.5788026,3.99576216 C64.6092237,3.80635676 63.5514868,5.11316757 63.0868816,6.52549189 L63.0425921,6.52549189 C63.1919605,5.72376216 63.2562237,4.79749189 63.2562237,4.20592432 L61.0955921,4.20592432 L61.0955921,14.6828973 L63.3613026,14.6828973 L63.3613026,10.4251676 C63.3613026,7.28397838 64.3773553,5.83014054 66.4719868,6.20981622 L66.5788026,3.99576216 Z" id="Fill-8"></path>
                    <path d="M25.9636184,4.23057297 L23.5172763,4.23057297 L21.4947237,9.88851892 C21.2611184,10.566573 21.0483553,11.308627 20.8781447,11.9650595 L20.8564342,11.9650595 C20.6645132,11.2662486 20.4300395,10.5250595 20.1755921,9.80376216 L18.1973289,4.23057297 L15.6849868,4.23057297 L19.64325,14.7637622 L21.9636711,14.7637622 L25.9636184,4.23057297 Z" id="Fill-10"></path>
                    <polygon id="Fill-12" points="50.4960789 6.40285405 50.4960789 4.26490811 47.8335 4.26058378 47.8317632 0.673989189 45.5877632 0.673989189 45.5929737 15.0039351 47.8335 15.0039351 47.8335 6.40544865"></polygon>
                    <polygon id="Fill-14" points="15.5625395 6.40285405 14.7705395 4.26490811 12.6350921 4.26058378 12.6324868 0.673989189 10.3919605 0.673989189 10.3945658 14.8335568 12.6350921 14.8335568 12.6350921 6.40544865"></polygon>
                    <path d="M59.7077684,5.55398919 L59.7077684,4.2220973 L57.5584263,4.2220973 L57.5584263,5.24782703 C57.5566895,5.26771892 57.5523474,5.28415135 57.5523474,5.30663784 L57.5523474,12.9122595 C56.9010316,13.0791784 56.2201895,13.1613405 55.5132947,13.1613405 C54.8758737,13.1613405 54.3800053,12.9892324 54.0239526,12.6441514 C53.6713737,12.2999351 53.4950842,11.8009081 53.4950842,11.1522595 L53.4950842,5.55398919 L53.4950842,4.2220973 L51.3474789,4.2220973 L51.3474789,5.55398919 L51.3509526,5.55398919 L51.3509526,10.9862054 C51.3509526,11.6080432 51.4404,12.1771243 51.6219,12.6951784 C51.8016632,13.2140973 52.0804263,13.6586378 52.4547158,14.0331243 C52.8420316,14.4197189 53.2979526,14.7025297 53.8172684,14.8824216 C54.3374526,15.0614486 54.9027947,15.1513946 55.5132947,15.1513946 C56.6509263,15.1513946 57.7399263,14.9723676 58.7820316,14.6125838 C58.8020053,14.6065297 58.8176368,14.591827 58.8376105,14.5840432 C59.0564526,14.5174486 59.6938737,14.2303135 59.6938737,14.2303135 L59.6938737,13.369773 C59.6938737,13.3628541 59.6956105,13.3576649 59.6956105,13.3490162 L59.6956105,5.55398919 L59.7077684,5.55398919 Z" id="Fill-16"></path>
                    <path d="M44.1864789,13.6672 L44.1830053,13.6672 L44.1830053,8.23498378 C44.1830053,7.61314595 44.0935579,7.0432 43.9137947,6.52341622 C43.7322947,6.00709189 43.4552684,5.56082162 43.0809789,5.18806486 C42.6919263,4.80060541 42.2377421,4.51779459 41.7166895,4.3379027 C41.1965053,4.15801081 40.6329,4.06806486 40.0197947,4.06806486 C38.8830316,4.06806486 37.7931632,4.24709189 36.7527947,4.60774054 C36.7441105,4.61033514 36.7380316,4.61638919 36.7276105,4.62071351 C36.5330842,4.67174054 35.8470316,4.98136216 35.8470316,4.98136216 L35.8470316,5.80730811 C35.8461632,5.82892973 35.8366105,5.84882162 35.8366105,5.87130811 L35.8366105,13.6672 L35.8279263,13.6672 L35.8279263,14.9990919 L37.9764,14.9990919 L37.9764,13.9733622 C37.9772684,13.9534703 37.9816105,13.936173 37.9816105,13.9145514 L37.9816105,6.30633514 C38.6329263,6.14114595 39.3137684,6.05811892 40.0197947,6.05811892 C40.6589526,6.05811892 41.1556895,6.23022703 41.5082684,6.57703784 C41.8625842,6.92125405 42.0388737,7.41855135 42.0388737,8.06806486 L42.0388737,13.6672 L42.0388737,14.9990919 L44.1864789,14.9990919 L44.1864789,13.6672 Z" id="Fill-18"></path>
                </g>
            </g>
        </g>
    </g>
</svg>