<?xml version="1.0" encoding="UTF-8" standalone="no"?>
<svg width="123px" height="93px" viewBox="0 0 123 93" version="1.1" xmlns="http://www.w3.org/2000/svg" xmlns:xlink="http://www.w3.org/1999/xlink">
    <!-- Generator: sketchtool 40.3 (33839) - http://www.bohemiancoding.com/sketch -->
    <title>D289C044-AFE1-4A3E-9610-B472A7E24F7E</title>
    <desc>Created with sketchtool.</desc>
    <defs></defs>
    <g id="Lunchormama-2.0" stroke="none" stroke-width="1" fill="none" fill-rule="evenodd">
        <g id="01" transform="translate(-33.000000, -29.000000)" fill="#FFFFFF">
            <g id="Logo-White-Flat" transform="translate(26.000000, 19.000000)">
                <g id="Group" stroke-width="1" transform="translate(57.000000, 58.000000)">
                    <path d="M1.62503704,49 L1.62503704,1.19333333 L10.917037,1.19333333 L10.917037,40.8526667 L35.2917037,40.8526667 L35.2917037,49 L1.62503704,49 Z M65.185037,41.122 C67.3846036,41.122 69.2362517,40.6731156 70.740037,39.7753333 C72.2438223,38.8775511 73.4558102,37.7104516 74.376037,36.274 C75.2962639,34.8375484 75.9471462,33.1878982 76.3287037,31.325 C76.7102612,29.4621018 76.901037,27.543121 76.901037,25.568 L76.901037,1.19333333 L86.1257037,1.19333333 L86.1257037,25.568 C86.1257037,28.8449053 85.7329299,31.9197634 84.9473704,34.7926667 C84.1618109,37.6655699 82.9273788,40.1793226 81.244037,42.334 C79.5606953,44.4886774 77.3948281,46.1944382 74.7463704,47.4513333 C72.0979127,48.7082285 68.9332777,49.3366667 65.2523704,49.3366667 C61.4367957,49.3366667 58.1936059,48.6745622 55.5227037,47.3503333 C52.8518015,46.0261045 50.6859342,44.2754553 49.025037,42.0983333 C47.3641398,39.9212113 46.1633741,37.3962366 45.4227037,34.5233333 C44.6820333,31.6504301 44.3117037,28.6653488 44.3117037,25.568 L44.3117037,1.19333333 L53.6037037,1.19333333 L53.6037037,25.568 C53.6037037,27.5880101 53.7944796,29.5294351 54.176037,31.3923333 C54.5575945,33.2552315 55.2084769,34.9048817 56.1287037,36.3413333 C57.0489305,37.777785 58.2496963,38.9336623 59.731037,39.809 C61.2123778,40.6843377 63.0303596,41.122 65.185037,41.122 L65.185037,41.122 Z M111.777037,18.3633333 L111.777037,49 L102.485037,49 L102.485037,1.19333333 L109.689704,1.19333333 L134.603037,32.5706667 L134.603037,1.26066667 L143.895037,1.26066667 L143.895037,49 L136.353704,49 L111.777037,18.3633333 Z M157.965037,24.76 C157.965037,21.8422076 158.492476,18.9581254 159.54737,16.1076667 C160.602265,13.257208 162.139694,10.709789 164.159704,8.46533333 C166.179714,6.22087767 168.648578,4.40289585 171.56637,3.01133333 C174.484163,1.61977082 177.805907,0.924 181.531704,0.924 C185.930837,0.924 189.735132,1.88910146 192.944704,3.81933333 C196.154275,5.74956521 198.544585,8.26331785 200.115704,11.3606667 L192.97837,16.276 C192.349923,14.9293266 191.586819,13.7958935 190.689037,12.8756667 C189.791255,11.9554398 188.826153,11.2260027 187.793704,10.6873333 C186.761254,10.148664 185.683932,9.75589012 184.561704,9.509 C183.439476,9.26210988 182.339709,9.13866667 181.26237,9.13866667 C178.928136,9.13866667 176.896935,9.60999529 175.168704,10.5526667 C173.440473,11.495338 172.004043,12.718548 170.85937,14.2223333 C169.714698,15.7261186 168.850596,17.4318793 168.267037,19.3396667 C167.683479,21.247454 167.391704,23.1439906 167.391704,25.0293333 C167.391704,27.1391217 167.728367,29.1703236 168.401704,31.123 C169.07504,33.0756764 170.02892,34.7926593 171.26337,36.274 C172.497821,37.7553407 173.97914,38.9448844 175.70737,39.8426667 C177.435601,40.7404489 179.332138,41.1893333 181.397037,41.1893333 C182.474376,41.1893333 183.596587,41.054668 184.763704,40.7853333 C185.930821,40.5159987 187.04181,40.0895585 188.096704,39.506 C189.151598,38.9224415 190.127921,38.1705602 191.025704,37.2503333 C191.923486,36.3301065 192.641701,35.2191176 193.18037,33.9173333 L200.789037,38.294 C200.025922,40.0895645 198.937377,41.671882 197.52337,43.041 C196.109363,44.410118 194.515824,45.5659953 192.742704,46.5086667 C190.969584,47.451338 189.073047,48.1695531 187.053037,48.6633333 C185.033027,49.1571136 183.057936,49.404 181.127704,49.404 C177.716131,49.404 174.596385,48.685785 171.76837,47.2493333 C168.940356,45.8128817 166.505158,43.9387893 164.462704,41.627 C162.420249,39.3152107 160.826709,36.6892369 159.682037,33.749 C158.537365,30.8087631 157.965037,27.8124597 157.965037,24.76 L157.965037,24.76 Z M254.249037,1.19333333 L254.249037,49 L245.02437,49 L245.02437,28.598 L223.343037,28.598 L223.343037,49 L214.051037,49 L214.051037,1.19333333 L223.343037,1.19333333 L223.343037,20.518 L245.02437,20.518 L245.02437,1.19333333 L254.249037,1.19333333 Z" id="LUNCH"></path>
                    <path d="M0.782037037,196.351852 L0.782037037,148.545185 L21.9247037,148.545185 C24.1242703,148.545185 26.1554722,149.005292 28.0183704,149.925519 C29.8812686,150.845745 31.4860303,152.057733 32.8327037,153.561519 C34.1793771,155.065304 35.2342554,156.771065 35.9973704,158.678852 C36.7604853,160.586639 37.142037,162.50562 37.142037,164.435852 C37.142037,167.533201 36.3677114,170.34995 34.819037,172.886185 C33.2703626,175.42242 31.1718281,177.251624 28.5233704,178.373852 L39.4313704,196.351852 L28.9947037,196.351852 L19.2313704,180.326519 L10.074037,180.326519 L10.074037,196.351852 L0.782037037,196.351852 Z M10.074037,172.179185 L21.7227037,172.179185 C22.5755969,172.179185 23.3723667,171.977187 24.113037,171.573185 C24.8537074,171.169183 25.4933677,170.6193 26.032037,169.923519 C26.5707064,169.227737 26.9971466,168.408523 27.3113704,167.465852 C27.6255942,166.52318 27.7827037,165.513191 27.7827037,164.435852 C27.7827037,163.313624 27.6031499,162.28119 27.244037,161.338519 C26.8849241,160.395847 26.4023734,159.576633 25.7963704,158.880852 C25.1903673,158.185071 24.4945965,157.646409 23.709037,157.264852 C22.9234776,156.883294 22.1267077,156.692519 21.3187037,156.692519 L10.074037,156.692519 L10.074037,172.179185 Z M81.9193704,148.545185 L90.134037,148.545185 L108.314037,196.351852 L98.7527037,196.351852 L94.3087037,184.433852 L77.610037,184.433852 L73.2333704,196.351852 L63.672037,196.351852 L81.9193704,148.545185 Z M92.6253704,177.902519 L86.0267037,159.116519 L79.1587037,177.902519 L92.6253704,177.902519 Z M176.052037,196.351852 L176.052037,164.705185 L163.730037,188.271852 L158.680037,188.271852 L146.358037,164.705185 L146.358037,196.351852 L137.066037,196.351852 L137.066037,148.545185 L147.03137,148.545185 L161.17137,175.747852 L175.446037,148.545185 L185.344037,148.545185 L185.344037,196.351852 L176.052037,196.351852 Z M232.410704,148.545185 L240.62537,148.545185 L258.80537,196.351852 L249.244037,196.351852 L244.800037,184.433852 L228.10137,184.433852 L223.724704,196.351852 L214.16337,196.351852 L232.410704,148.545185 Z M243.116704,177.902519 L236.518037,159.116519 L229.650037,177.902519 L243.116704,177.902519 Z" id="RAMA"></path>
                    <path d="M158.174074,98.5648148 C158.174074,82.1323485 144.830169,68.8148148 128.374074,68.8148148 C111.917979,68.8148148 98.5740741,82.1323485 98.5740741,98.5648148 C98.5740741,114.997281 111.917979,128.314815 128.374074,128.314815 C144.830169,128.314815 158.174074,114.997281 158.174074,98.5648148 Z M107.574074,98.5648148 C107.574074,87.1069012 116.884561,77.8148148 128.374074,77.8148148 C139.863587,77.8148148 149.174074,87.1069012 149.174074,98.5648148 C149.174074,110.022728 139.863587,119.314815 128.374074,119.314815 C116.884561,119.314815 107.574074,110.022728 107.574074,98.5648148 Z" id="Oval-6"></path>
                    <path d="M77.1036856,103.158706 L56.5144496,103.746332 L56.5144496,101.389707 L77.1036856,101.389707 L77.1036856,99.6696765 L56.3825852,99.6696765 L56.3825852,97.7078626 L77.1036856,97.7078626 L77.1036856,95.8072599 L56.3825852,95.8072599 L56.3825852,93.4996037 L77.1159521,94.1576224 L77.1159521,92.3641389 L59.581062,90.1880865 C59.581062,90.1880865 58.9217404,90.1391176 58.6702781,90.1391176 C55.9624593,90.1391176 53.5429021,91.3847623 51.9727965,93.3435155 C44.6773255,99.789038 37.2377237,95.3879643 35.4774881,95.3879643 C33.5271226,95.4002065 3.4099216,95.4002065 3.4099216,95.4002065 C1.49328882,95.3879643 0.00904838501,96.8815136 0.00904838501,98.7239659 C0.00904838501,100.566418 1.50555527,102.059968 3.33938952,102.059968 L35.4192225,102.059968 C37.4677196,102.059968 46.0205017,98.3291547 52.380656,104.545136 C53.85263,106.099896 55.8428615,107.091515 58.0692221,107.247603 C58.2256193,107.259845 58.6212123,107.259845 58.6212123,107.259845 L77.1036856,105.132762 L77.1036856,103.158706 Z" id="Fill-2"></path>
                    <path d="M249.635994,93.6296296 C249.635994,93.6296296 227.284618,93.6296296 225.061473,93.6419049 C223.032046,93.6296296 174.288889,93.6879371 174.288889,93.6879371 L174.288889,94.8049851 C174.288889,94.8049851 179.408581,103.854915 217.374248,103.854915 C219.283755,96.9009845 226.900257,99.8255634 227.871922,100.353399 C229.806028,100.353399 249.648294,100.209165 249.648294,100.209165 L249.648294,100.187683 C249.672893,100.187683 249.685192,100.19689 249.709791,100.19689 C251.536276,100.209165 253.012223,98.7238595 252.999924,96.9132597 C252.999924,95.1026599 251.523976,93.6296296 249.709791,93.6296296 C249.697492,93.6296296 249.672893,93.6296296 249.660593,93.6419049 L249.635994,93.6296296" id="Fill-1"></path>
                </g>
                <path d="M21,39 L30,30 L30,283 L21,274 L355,274 L346,283 L346,30 L355,39 L21,39 Z M355,30 L355,283 L21,283 L21,30 L355,30 Z" id="Rectangle"></path>
            </g>
        </g>
    </g>
</svg>